<?xml version="1.0" standalone="no"?>
<!DOCTYPE svg PUBLIC "-//W3C//DTD SVG 20010904//EN"
 "http://www.w3.org/TR/2001/REC-SVG-20010904/DTD/svg10.dtd">
<svg version="1.0" xmlns="http://www.w3.org/2000/svg"
 width="180.000000pt" height="180.000000pt" viewBox="0 0 180.000000 180.000000"
 preserveAspectRatio="xMidYMid meet">
<metadata>
Created by potrace 1.11, written by Peter Selinger 2001-2013
</metadata>
<g transform="translate(0.000000,180.000000) scale(0.100000,-0.100000)"
fill="#000000" stroke="none">
<path d="M775 1657 c-48 -27 -99 -106 -122 -190 l-17 -58 -23 68 c-43 127
-108 193 -193 193 -51 0 -74 -16 -68 -47 3 -14 13 -18 51 -19 61 -1 96 -33
134 -123 22 -52 66 -124 98 -159 8 -8 74 102 95 156 13 35 38 80 56 99 28 30
39 35 66 30 61 -9 90 27 46 57 -31 22 -76 20 -123 -7z"/>
<path d="M875 1546 c-32 -16 -43 -25 -30 -25 38 -2 120 -49 162 -93 24 -24 59
-73 78 -108 l36 -65 -4 85 c-7 186 -109 272 -242 206z"/>
<path d="M253 1545 c-65 -28 -113 -151 -99 -249 l7 -46 35 69 c40 80 123 163
181 181 56 18 59 26 13 44 -49 19 -94 20 -137 1z"/>
<path d="M347 1359 c-9 -6 -22 -19 -28 -30 -24 -45 52 -94 89 -57 39 39 -14
113 -61 87z"/>
<path d="M867 1352 c-29 -32 -15 -73 30 -87 26 -7 63 24 63 54 0 46 -62 67
-93 33z"/>
<path d="M400 1175 c-26 -31 13 -82 44 -56 19 16 21 42 4 59 -16 16 -33 15
-48 -3z"/>
<path d="M824 1176 c-12 -31 0 -51 31 -51 27 0 30 3 30 30 0 25 -4 30 -28 33
-17 2 -29 -2 -33 -12z"/>
<path d="M1068 883 c12 -2 30 -2 40 0 9 3 -1 5 -23 4 -22 0 -30 -2 -17 -4z"/>
<path d="M1178 883 c12 -2 32 -2 45 0 12 2 2 4 -23 4 -25 0 -35 -2 -22 -4z"/>
<path d="M884 869 c-122 -9 -168 -20 -259 -64 -80 -38 -154 -104 -185 -166
-18 -33 -21 -55 -18 -103 9 -140 112 -260 274 -317 81 -28 369 -48 387 -26 7
7 34 22 61 32 55 20 86 44 166 127 30 32 63 58 72 58 10 0 43 -16 75 -37 77
-49 135 -66 183 -53 57 15 66 64 28 152 -19 44 -20 54 -9 82 8 17 18 52 24 78
9 38 8 50 -6 71 -36 55 -117 42 -233 -37 -74 -51 -77 -52 -94 -31 -10 12 -10
18 0 30 10 12 9 15 -5 15 -9 0 -43 23 -74 52 -60 55 -168 112 -232 123 -21 4
-39 11 -39 16 0 5 -3 8 -7 8 -5 -1 -53 -5 -109 -10z m-199 -254 c28 -27 30
-42 14 -79 -33 -71 -139 -45 -139 34 0 29 44 70 75 70 14 0 37 -11 50 -25z
m281 -136 c11 -22 13 -34 5 -38 -6 -4 -10 -18 -9 -32 3 -32 -37 -89 -63 -89
-10 0 -19 -4 -19 -10 0 -11 -91 -13 -127 -4 -20 5 -21 9 -11 28 6 11 17 44 23
71 10 45 16 53 61 77 28 16 65 28 86 28 32 0 40 -5 54 -31z"/>
<path d="M1361 773 c-1 -41 2 -53 14 -53 19 0 19 35 0 75 l-13 30 -1 -52z"/>
<path d="M1360 370 c0 -5 5 -10 11 -10 5 0 7 5 4 10 -3 6 -8 10 -11 10 -2 0
-4 -4 -4 -10z"/>
<path d="M1361 288 c0 -28 2 -30 9 -13 12 28 12 45 0 45 -5 0 -10 -15 -9 -32z"/>
<path d="M1320 229 c0 -5 5 -7 10 -4 6 3 10 8 10 11 0 2 -4 4 -10 4 -5 0 -10
-5 -10 -11z"/>
<path d="M1160 190 c0 -12 64 -12 100 0 19 6 9 8 -37 9 -36 1 -63 -3 -63 -9z"/>
</g>
</svg>
